<svg width="59" height="14" viewBox="0 0 59 14" fill="none" xmlns="http://www.w3.org/2000/svg">
<path d="M24.7387 13.6816V4.32564H24.6778L20.8458 13.6816H19.384L15.5398 4.32564H15.4789V13.6816H13.6812V0.96918H15.9627L20.0766 11.0995H20.1479L24.2532 0.96918H26.5433V13.6816H24.7387ZM36.4818 13.6816H34.658V12.1139H34.6145C34.1029 13.224 33.1614 13.8487 31.7431 13.8487C29.7262 13.8487 28.4924 12.5367 28.4924 10.4122V4.41264H30.3962V10.0415C30.3962 11.4509 31.0662 12.2078 32.3783 12.2078C33.7531 12.2078 34.5815 11.2561 34.5815 9.81186V4.41264H36.4853L36.4818 13.6816ZM41.6973 4.2456C43.8552 4.2456 45.2561 5.44446 45.3187 7.15314H43.5298C43.4236 6.2553 42.7641 5.69154 41.6973 5.69154C40.6671 5.69154 39.9797 6.1944 39.9797 6.9339C39.9797 7.51506 40.4026 7.91178 41.4067 8.14146L42.9137 8.48424C44.8088 8.92446 45.531 9.66396 45.531 11.0038C45.531 12.695 43.9544 13.8574 41.7687 13.8574C39.4507 13.8574 38.0585 12.7211 37.8827 10.9585H39.7691C39.9449 11.9277 40.6062 12.4027 41.7687 12.4027C42.9137 12.4027 43.6185 11.9277 43.6185 11.1691C43.6185 10.5705 43.2757 10.2173 42.2611 9.9876L40.7541 9.63612C38.9912 9.2307 38.1194 8.38506 38.1194 7.03656C38.1194 5.38182 39.5655 4.2456 41.6973 4.2456ZM46.8606 1.97316C46.8484 1.36242 47.3339 0.85782 47.9448 0.84564C48.5556 0.83346 49.0602 1.31892 49.0724 1.92966C49.0846 2.5404 48.5991 3.045 47.9883 3.05718C47.9796 3.05718 47.9709 3.05718 47.9622 3.05718C47.3583 3.06066 46.8658 2.57694 46.8606 1.97316ZM47.0103 4.41264H48.9141V13.6799H47.0103V4.41264ZM56.947 7.60206C56.7538 6.61548 56.0125 5.83074 54.7717 5.83074C53.2995 5.83074 52.3319 7.0557 52.3319 9.04626C52.3319 11.0821 53.3099 12.2618 54.7909 12.2618C55.962 12.2618 56.7295 11.618 56.9487 10.5444H58.7812C58.5776 12.5176 57.001 13.8574 54.7717 13.8574C52.1196 13.8574 50.3933 12.0425 50.3933 9.048C50.3933 6.10566 52.1196 4.24734 54.7543 4.24734C57.1419 4.24734 58.595 5.78028 58.7638 7.6038L56.947 7.60206ZM7.63738 2.2098C8.15249 1.59384 8.4083 0.80214 8.35087 0C7.56081 0.07482 6.82991 0.4524 6.31306 1.05444C5.87104 1.56426 5.48122 2.39598 5.58216 3.17898C6.36352 3.24684 7.14489 2.78748 7.63738 2.2098ZM8.34043 3.33036C7.2058 3.2625 6.23997 3.97416 5.69875 3.97416C5.1558 3.97416 4.32571 3.36342 3.42948 3.38082C2.2409 3.4104 1.15847 4.06812 0.584195 5.10864C-0.635712 7.21056 0.262251 10.3286 1.44909 12.0391C2.02511 12.8864 2.71947 13.8191 3.63309 13.7843C4.49799 13.7512 4.8356 13.224 5.8867 13.224C6.93606 13.224 7.2406 13.7843 8.15597 13.7669C9.1044 13.7495 9.69782 12.9195 10.2738 12.0721C10.6828 11.4718 11.0013 10.8158 11.2223 10.1233C11.2049 10.1059 9.39328 9.41166 9.37587 7.32714C9.35847 5.58192 10.7994 4.75194 10.8655 4.69974C10.0528 3.50088 8.78245 3.36516 8.34043 3.33036Z" fill="black"/>
</svg>
