<svg width="78" height="14" viewBox="0 0 78 14" fill="none" xmlns="http://www.w3.org/2000/svg">
<path d="M13.6669 13.6406V0.954979H21.588V2.65137H15.6359V6.66922H21.0862V8.33089H15.6359V13.6406H13.6669ZM22.9146 1.94816C22.9146 1.34218 23.4059 0.857745 24.0137 0.857745C24.6196 0.857745 25.1128 1.34218 25.1128 1.94816C25.1128 2.54545 24.6214 3.03857 24.0137 3.03857C23.4059 3.03857 22.9146 2.54719 22.9146 1.94816ZM23.0639 4.3929H24.9634V13.6406H23.0639V4.3929ZM29.655 2.2034V4.3929H31.4121V5.89656H29.655V10.9944C29.655 11.7949 30.0057 12.1543 30.7801 12.1543C30.9729 12.1543 31.2819 12.1369 31.4035 12.1109V13.6145C31.1934 13.6666 30.7714 13.7031 30.3478 13.7031C28.476 13.7031 27.745 12.9912 27.745 11.2062V5.89656H26.3994V4.3929H27.745V2.2034H29.655ZM33.0061 4.3929H34.8171V5.93997H34.8605C35.3623 4.88428 36.3468 4.2349 37.7706 4.2349C39.8107 4.2349 40.9793 5.5354 40.9793 7.65372V13.6406H39.0711V8.02356C39.0711 6.6345 38.4199 5.87052 37.1021 5.87052C35.7651 5.87052 34.9039 6.82028 34.9039 8.25275V13.6423H33.0044V4.3929H33.0061ZM50.5586 10.9232C50.2947 12.6109 48.6955 13.8159 46.5772 13.8159C43.8616 13.8159 42.2173 11.9789 42.2173 9.06014C42.2173 6.15875 43.8876 4.22448 46.4991 4.22448C49.0654 4.22448 50.6662 6.03547 50.6662 8.83963V9.49075H44.1342V9.60535C44.1342 11.2132 45.1013 12.2776 46.6223 12.2776C47.7041 12.2776 48.5045 11.7323 48.758 10.9232H50.5586ZM44.1411 8.1642H48.765C48.7216 6.7491 47.8239 5.75592 46.4973 5.75592C45.169 5.75592 44.2366 6.76646 44.1411 8.1642ZM55.5158 4.22622C57.6688 4.22622 59.0666 5.42254 59.1291 7.12761H57.3442C57.2382 6.23167 56.5802 5.6691 55.5158 5.6691C54.4879 5.6691 53.8021 6.1709 53.8021 6.90884C53.8021 7.48877 54.224 7.88465 55.2258 8.11385L56.7295 8.4559C58.6203 8.89519 59.3409 9.63313 59.3409 10.9701C59.3409 12.6578 57.7678 13.8177 55.587 13.8177C53.2742 13.8177 51.8852 12.6839 51.7098 10.925H53.5902C53.7656 11.8921 54.4254 12.3661 55.5853 12.3661C56.7278 12.3661 57.431 11.8921 57.431 11.1351C57.431 10.5378 57.0889 10.1853 56.0766 9.95609L54.573 9.60535C52.8141 9.20079 51.9442 8.35693 51.9442 7.01128C51.9477 5.36004 53.3888 4.22622 55.5158 4.22622ZM64.1037 4.22622C66.2567 4.22622 67.6545 5.42254 67.717 7.12761H65.932C65.8261 6.23167 65.168 5.6691 64.1037 5.6691C63.0758 5.6691 62.3899 6.1709 62.3899 6.90884C62.3899 7.48877 62.8118 7.88465 63.8137 8.11385L65.3174 8.4559C67.2082 8.89519 67.9288 9.63313 67.9288 10.9701C67.9288 12.6578 66.3557 13.8177 64.1749 13.8177C61.8621 13.8177 60.473 12.6839 60.2976 10.925H62.1781C62.3534 11.8921 63.0133 12.3661 64.1731 12.3661C65.3156 12.3661 66.0188 11.8921 66.0188 11.1351C66.0188 10.5378 65.6768 10.1853 64.6645 9.95609L63.1608 9.60535C61.4019 9.20079 60.532 8.35693 60.532 7.01128C60.5338 5.36004 61.9767 4.22622 64.1037 4.22622ZM74.3463 13.6527H72.6151V9.8849H69.0279V8.17115H72.6151V4.40506H74.3463V8.17115H77.9422V9.8849H74.3463V13.6527ZM7.63664 2.19471C8.1176 1.61305 8.44056 0.803918 8.35201 0C7.66095 0.0277812 6.82404 0.460126 6.32745 1.0418C5.88295 1.55575 5.49228 2.3805 5.5982 3.16879C6.36912 3.22783 7.15742 2.77638 7.63664 2.19471ZM8.33464 3.32159C7.20256 3.23825 6.24237 3.95361 5.70758 3.95361C5.16411 3.95361 4.32547 3.33895 3.43821 3.35632C2.2714 3.37368 1.19661 4.03522 0.594107 5.08049C-0.617848 7.18318 0.285041 10.2999 1.46574 12.0067C2.04394 12.8401 2.73152 13.7812 3.63615 13.7465C4.50605 13.7118 4.83595 13.1839 5.88816 13.1839C6.94037 13.1839 7.23729 13.7465 8.15754 13.7309C9.09515 13.7135 9.68898 12.8801 10.262 12.0414C10.9252 11.0743 11.1978 10.1367 11.2135 10.0863C11.1926 10.0776 9.38686 9.38484 9.36949 7.30472C9.35387 5.56492 10.7898 4.72975 10.8541 4.68808C10.038 3.48654 8.77914 3.35458 8.33464 3.32159Z" fill="black"/>
</svg>
